<?xml version="1.0" encoding="UTF-8"?>
<!DOCTYPE svg PUBLIC "-//W3C//DTD SVG 1.1//EN" "http://www.w3.org/Graphics/SVG/1.1/DTD/svg11.dtd">
<!-- Creator: CorelDRAW X7 -->
<svg xmlns="http://www.w3.org/2000/svg" xml:space="preserve" width="7.5mm" height="5.5mm" version="1.1" style="shape-rendering:geometricPrecision; text-rendering:geometricPrecision; image-rendering:optimizeQuality; fill-rule:evenodd; clip-rule:evenodd"
viewBox="0 0 750 550"
 xmlns:xlink="http://www.w3.org/1999/xlink">
 <defs>
  <style type="text/css">
   <![CDATA[
    .fil0 {fill:#00AC26}
    .fil1 {fill:white;fill-rule:nonzero}
   ]]>
  </style>
 </defs>
 <g id="Layer_x0020_1">
  <metadata id="CorelCorpID_0Corel-Layer"/>
  <g id="_2203297283408">
   <rect class="fil0" x="7" y="8" width="737" height="534" rx="42" ry="102"/>
   <path class="fil1" d="M128 78l0 14c-4,0 -7,1 -10,1 -2,1 -4,3 -6,5 -1,3 -2,7 -3,13l-4 83c-1,4 -1,8 -1,12 -1,3 -1,6 -1,8 2,0 5,-1 9,-1 4,0 7,0 9,0l-1 17 -69 0 1 -14c4,-1 7,-1 9,-2 3,0 5,-2 6,-5 2,-2 3,-7 3,-12l5 -84c0,-4 1,-7 1,-11 1,-4 1,-6 1,-8 -2,0 -6,0 -9,0 -4,0 -7,0 -9,0l1 -16 68 0z"/>
   <path id="1" class="fil1" d="M238 232c-9,0 -15,-2 -18,-6 -3,-5 -5,-11 -5,-18 0,-5 1,-10 1,-15 1,-5 2,-11 2,-17 1,-5 2,-11 2,-16 1,-5 1,-9 1,-12 0,-2 0,-4 0,-5 -1,-2 -2,-3 -3,-3 -1,-1 -2,-1 -3,-1 -3,0 -6,1 -9,5 -4,3 -7,7 -9,13 -3,5 -6,11 -8,18 -2,6 -4,13 -5,20 -2,7 -2,13 -2,19 0,2 0,5 0,8 0,4 0,6 0,8l-31 0c0,-3 0,-5 0,-7 0,-1 0,-2 0,-4 0,-3 0,-6 0,-10 1,-4 1,-9 2,-14 0,-5 1,-9 2,-14 0,-4 1,-8 1,-12 1,-3 1,-7 2,-10 0,-3 1,-6 1,-9 0,-2 0,-4 0,-5 0,-3 0,-4 -1,-5 -1,-1 -1,-1 -2,-1 -2,0 -4,1 -6,4 -2,2 -4,7 -6,13l-13 -3c1,-3 2,-7 4,-11 1,-4 3,-7 6,-11 2,-3 5,-6 9,-9 4,-2 8,-3 13,-3 4,0 7,0 10,2 3,1 6,3 8,6 1,2 2,6 2,12 0,2 0,5 0,6 0,2 -1,4 -1,7l0 0c4,-9 8,-16 13,-21 4,-4 9,-8 14,-9 5,-2 10,-3 14,-3 7,0 13,1 17,4 4,3 7,7 9,12 2,5 3,10 3,17 0,6 0,11 -1,18 -1,6 -2,12 -3,19 -1,6 -2,12 -2,17 0,3 0,4 1,5 1,1 2,1 3,1 1,0 3,-1 5,-4 2,-2 4,-7 6,-13l13 3c-1,3 -2,7 -4,11 -1,4 -4,7 -7,11 -3,4 -7,6 -11,9 -4,2 -9,3 -14,3z"/>
   <path id="2" class="fil1" d="M329 66c0,4 -1,9 -1,15 -1,6 -2,11 -2,17 -1,5 -1,9 -2,12 0,2 0,4 0,8 -1,4 -1,9 -2,14 0,4 -1,9 -2,12l0 0c3,-4 6,-8 9,-12 3,-3 6,-5 9,-7 4,-2 7,-4 10,-5 3,-1 5,-1 8,-1 8,0 15,2 20,6 5,4 8,9 11,15 2,6 3,13 3,20 0,10 -1,19 -3,28 -3,9 -7,16 -12,23 -5,7 -12,12 -20,16 -8,3 -18,5 -30,5 -2,0 -6,0 -10,0 -5,-1 -10,-1 -15,-2 -5,-1 -9,-2 -13,-4 0,-11 1,-22 1,-31 1,-10 1,-19 2,-28 0,-9 1,-18 2,-27 0,-10 1,-20 2,-32 0,-2 0,-5 0,-9 1,-4 1,-8 2,-11 -3,0 -6,0 -9,0 -4,1 -6,1 -8,1l1 -17c7,0 14,0 19,-1 4,-1 8,-1 11,-2 3,-1 5,-2 6,-3l13 0zm17 73c-3,0 -6,1 -9,4 -3,3 -5,6 -8,11 -2,5 -4,10 -6,17 -2,7 -3,14 -4,21 -1,8 -2,16 -2,24 1,1 3,1 5,1 3,1 5,1 6,1 6,0 10,-1 14,-4 3,-3 6,-6 8,-11 2,-4 4,-9 5,-14 1,-6 1,-11 2,-16 0,-5 0,-10 0,-14 0,-8 -1,-13 -3,-16 -3,-3 -5,-4 -8,-4z"/>
   <path id="3" class="fil1" d="M449 232c-7,0 -12,-1 -16,-4 -5,-3 -8,-6 -10,-11 -2,-5 -3,-11 -3,-18 0,-6 1,-11 2,-18 1,-6 2,-13 3,-19 1,-6 2,-12 2,-17 0,-3 -1,-4 -2,-5 -1,-1 -1,-1 -2,-1 -2,0 -4,1 -6,4 -2,2 -4,7 -6,13l-13 -3c1,-3 2,-7 4,-11 2,-4 4,-7 7,-11 3,-3 7,-6 11,-9 4,-2 9,-3 14,-3 9,0 15,2 19,6 3,5 4,11 4,18 0,5 0,10 -1,15 0,5 -1,11 -2,17 -1,5 -1,11 -2,16 -1,5 -1,9 -1,12 0,2 0,4 1,5 0,2 1,3 2,3 1,1 2,1 4,1 2,0 5,-1 8,-4 3,-4 6,-8 9,-13 2,-6 5,-12 7,-18 2,-7 4,-14 6,-21 1,-7 2,-13 2,-19 0,-2 0,-5 -1,-8 0,-4 0,-6 0,-8l31 0c0,3 0,5 0,7 1,1 1,2 1,4 0,3 -1,6 -1,11 0,4 -1,8 -2,13 0,5 -1,10 -2,15 0,4 -1,8 -1,12 -1,3 -1,6 -2,10 0,3 -1,5 -1,8 0,2 0,4 0,5 0,3 0,4 1,5 0,1 1,1 2,1 2,0 4,-1 6,-4 1,-2 3,-7 6,-13l12 3c0,3 -1,7 -3,11 -1,4 -3,7 -6,11 -2,4 -5,6 -9,9 -4,2 -8,3 -13,3 -6,0 -10,-1 -14,-4 -4,-3 -7,-8 -7,-15 0,-3 1,-6 1,-8 0,-2 0,-4 1,-7l-1 0c-3,9 -7,16 -12,21 -4,5 -8,8 -13,10 -5,2 -9,3 -14,3z"/>
   <path id="4" class="fil1" d="M590 232c-8,0 -15,-1 -21,-3 -7,-2 -12,-5 -16,-9 -4,-3 -6,-8 -6,-13 0,-4 1,-8 4,-11 3,-3 7,-4 11,-4 5,0 8,1 11,4 3,2 4,6 4,9 0,1 0,2 0,3 -1,2 -1,3 -2,4 1,1 3,3 7,4 3,1 6,2 9,2 7,0 11,-1 14,-4 3,-3 4,-6 4,-10 0,-2 -1,-5 -3,-7 -2,-2 -5,-4 -9,-6 -4,-2 -8,-4 -12,-6 -7,-4 -13,-8 -18,-11 -5,-4 -9,-7 -11,-11 -3,-3 -4,-8 -4,-13 0,-5 2,-10 5,-15 4,-4 9,-8 16,-12 7,-3 15,-4 25,-4 6,0 12,1 19,3 6,2 11,4 15,8 4,3 6,8 6,13 0,3 -1,7 -4,10 -3,3 -6,4 -11,4 -4,0 -8,-1 -11,-4 -2,-3 -3,-6 -3,-9 0,-1 0,-2 0,-3 0,-1 0,-2 1,-3 -1,-2 -3,-3 -6,-4 -3,-1 -5,-1 -7,-1 -2,0 -5,1 -7,1 -3,1 -5,3 -7,4 -1,2 -2,4 -2,6 0,2 0,4 1,6 1,1 3,3 7,5 3,2 8,5 14,8 5,3 11,6 16,9 6,3 10,7 14,11 4,5 6,10 6,16 0,6 -2,12 -7,17 -4,5 -10,9 -17,12 -8,3 -16,4 -25,4z"/>
   <path id="5" class="fil1" d="M108 318c8,0 14,1 20,3 6,2 11,5 14,9 4,4 5,8 5,14 0,4 -1,8 -4,10 -3,3 -6,5 -11,5 -6,0 -9,-2 -12,-5 -2,-3 -3,-6 -3,-8 0,-1 0,-3 1,-4 0,-2 1,-4 1,-5 0,-1 -2,-3 -4,-4 -2,0 -4,-1 -7,-1 -5,0 -9,2 -13,5 -3,3 -6,7 -7,12 -2,4 -4,9 -4,15 -1,5 -2,10 -2,14 0,8 1,14 3,19 2,5 4,8 7,11 4,2 7,3 10,3 3,0 7,0 10,-1 4,-1 8,-3 12,-6 4,-4 8,-9 11,-15l14 6c-5,9 -10,16 -15,22 -6,5 -12,9 -18,11 -6,2 -13,3 -20,3 -14,0 -25,-4 -34,-12 -8,-7 -13,-19 -13,-35 0,-7 2,-14 4,-22 2,-8 6,-15 11,-22 5,-6 11,-12 18,-16 8,-4 16,-6 26,-6z"/>
   <path id="6" class="fil1" d="M233 318c5,0 10,0 16,1 6,1 12,2 19,3 -1,6 -2,12 -3,20 -2,8 -3,16 -4,24 -1,8 -2,16 -3,23 -1,7 -1,12 -1,16 0,2 0,4 1,5 1,1 1,1 2,1 2,0 4,-1 6,-4 2,-2 4,-7 6,-13l13 3c0,3 -1,7 -3,11 -2,4 -4,7 -6,11 -3,3 -6,6 -10,9 -4,2 -9,3 -14,3 -5,0 -10,-1 -13,-4 -4,-3 -6,-8 -6,-16 0,-1 0,-4 0,-6 0,-2 0,-4 1,-6l0 0c-3,6 -6,11 -10,15 -3,5 -6,8 -10,10 -3,3 -7,5 -10,6 -4,1 -8,1 -11,1 -9,0 -17,-3 -23,-9 -6,-7 -9,-17 -9,-30 0,-10 1,-20 5,-29 3,-8 8,-16 14,-23 6,-7 14,-12 23,-16 9,-4 19,-6 30,-6zm-9 14c-4,0 -8,1 -12,4 -4,3 -7,6 -10,12 -3,5 -5,11 -6,18 -2,8 -2,17 -2,27 0,6 1,10 2,14 2,3 4,5 7,5 3,0 7,-2 10,-5 3,-3 5,-8 8,-13 2,-6 5,-12 6,-19 2,-7 4,-14 5,-21 1,-7 2,-14 2,-21 -1,0 -2,0 -4,0 -2,-1 -4,-1 -6,-1z"/>
   <path id="7" class="fil1" d="M293 484l0 -14c4,0 7,-1 9,-2 2,-2 4,-4 5,-7 0,-3 1,-7 1,-10 2,-17 4,-32 5,-44 1,-13 2,-23 2,-32 1,-8 1,-15 1,-20 1,-5 1,-8 1,-11 0,-2 -1,-4 -1,-5 -1,-1 -2,-1 -3,-1 -2,0 -3,1 -5,4 -2,2 -4,7 -6,13l-13 -3c0,-3 1,-7 3,-11 1,-4 3,-7 6,-11 2,-4 6,-6 9,-9 4,-2 9,-3 14,-3 5,0 9,1 13,4 4,3 6,8 6,16 0,2 0,5 0,6 0,2 0,4 0,7l0 0c4,-9 8,-16 13,-21 4,-4 9,-8 14,-10 5,-1 10,-2 14,-2 7,0 14,1 19,5 5,3 9,8 12,15 3,6 4,13 4,21 0,14 -2,26 -7,37 -5,11 -12,20 -22,26 -10,6 -23,9 -38,9 -1,0 -2,0 -4,0 -1,0 -3,0 -4,0 0,7 -1,13 -1,17 0,5 -1,9 -1,12 0,3 -1,6 -1,8 3,0 6,0 9,0 3,0 5,0 7,0l0 16 -61 0zm58 -67c6,0 11,-2 14,-4 4,-3 7,-7 10,-11 2,-5 4,-10 5,-15 2,-5 2,-10 3,-15 0,-5 1,-9 1,-13 0,-5 -1,-9 -2,-12 -1,-4 -2,-6 -4,-7 -2,-2 -4,-2 -6,-2 -3,0 -6,1 -9,3 -3,2 -5,6 -8,10 -2,5 -4,11 -6,18 -2,6 -3,14 -4,23 -1,4 -1,8 -2,11 0,4 -1,8 -1,13 2,0 3,0 5,1 2,0 4,0 4,0z"/>
   <path id="8" class="fil1" d="M450 398c5,0 9,2 12,5 3,4 4,8 4,12 0,5 -2,9 -5,12 -4,4 -8,5 -13,5 -5,0 -10,-1 -13,-5 -3,-3 -4,-7 -4,-12 0,-4 2,-8 6,-12 4,-3 8,-5 13,-5z"/>
   <path id="9" class="fil1" d="M566 277l-1 14c-4,0 -7,1 -9,1 -3,1 -5,3 -7,5 -1,3 -2,7 -2,13l-5 83c0,4 -1,8 -1,11 0,4 -1,7 -1,9 3,-1 6,-1 10,-1 4,0 6,0 8,0l-1 17 -68 0 1 -15c3,0 6,0 9,-1 2,-1 4,-2 6,-5 1,-2 2,-7 3,-12l4 -84c1,-4 1,-7 1,-11 1,-4 1,-6 2,-8 -3,0 -6,0 -10,0 -4,0 -7,0 -8,0l1 -16 68 0z"/>
   <path id="10" class="fil1" d="M609 431c-8,0 -15,-2 -20,-5 -5,-4 -9,-9 -12,-15 -2,-6 -3,-13 -3,-21 0,-14 2,-26 7,-37 4,-11 12,-20 21,-26 10,-6 23,-9 38,-9 1,0 3,0 6,0 2,0 4,0 5,0 1,-7 2,-12 2,-16 1,-4 1,-7 1,-9 1,-2 1,-4 1,-6 -2,0 -5,0 -9,0 -3,0 -6,1 -7,1l0 -17c8,0 14,0 19,-1 5,-1 9,-1 12,-2 3,-2 5,-2 6,-3l13 0c-1,11 -3,23 -4,34 -2,12 -3,24 -5,35 -1,10 -2,20 -3,29 -2,9 -3,17 -3,24 -1,8 -2,13 -2,18 0,2 1,4 2,5 0,1 1,1 2,1 2,0 4,-1 5,-4 2,-2 4,-7 6,-13l14 3c-1,3 -2,7 -4,11 -1,4 -3,7 -6,11 -3,3 -6,6 -9,9 -4,2 -9,3 -14,3 -5,0 -10,-1 -13,-4 -4,-3 -6,-8 -6,-16 0,-2 0,-5 0,-6 0,-2 0,-4 1,-7l0 0c-4,9 -9,16 -13,20 -5,5 -10,8 -14,10 -5,2 -10,3 -14,3zm9 -20c4,0 8,-1 11,-5 3,-4 6,-9 9,-15 2,-7 5,-14 6,-22 2,-6 3,-11 3,-17 1,-6 2,-12 3,-18 -2,-1 -4,-1 -6,-1 -3,-1 -6,-1 -7,-1 -6,0 -10,1 -14,4 -4,3 -6,7 -9,11 -2,5 -4,10 -5,15 -1,5 -2,10 -2,15 -1,5 -1,9 -1,12 0,8 1,13 3,17 3,4 5,5 9,5z"/>
  </g>
 </g>
</svg>
